<!DOCTYPE svg PUBLIC "-//W3C//DTD SVG 1.1//EN" "http://www.w3.org/Graphics/SVG/1.1/DTD/svg11.dtd">
<!-- Uploaded to: SVG Repo, www.svgrepo.com, Transformed by: SVG Repo Mixer Tools -->
<svg version="1.1" id="Icons" xmlns="http://www.w3.org/2000/svg" xmlns:xlink="http://www.w3.org/1999/xlink" viewBox="0 0 32 32" xml:space="preserve" width="800px" height="800px" fill="#232323ff">
<g id="SVGRepo_bgCarrier" stroke-width="0"/>
<g id="SVGRepo_tracerCarrier" stroke-linecap="round" stroke-linejoin="round"/>
<g id="SVGRepo_iconCarrier"> <style type="text/css"> .st0{fill:none;stroke:#232323ff;stroke-width:2;stroke-linecap:round;stroke-linejoin:round;stroke-miterlimit:10;} </style> <path d="M32,7c0-2.8-2.2-5-5-5H15.7c-2,0-3.9,0.7-5.3,2.1L1,12.8c0,0,0,0,0,0c-0.6,0.5-1,1.3-1,2.2c0,1.7,1.3,3,3,3h14 c0.6,0,1-0.4,1-1s-0.4-1-1-1H3c-0.6,0-1-0.4-1-1s0.4-1,1-1h14c1.7,0,3,1.3,3,3s-1.3,3-3,3H1c-0.6,0-1,0.4-1,1s0.4,1,1,1h16 c1.1,0,2.2-0.4,3-1c0,0,0.1,0,0.1-0.1l0.1-0.1c0.2-0.2,0.4-0.3,0.5-0.5l9.8-9.7C31.5,9.6,32,8.3,32,7z"/> <g> <path d="M1,24c-0.3,0-0.6-0.1-0.9-0.1C0.5,25.1,1.6,26,3,26h14c0.6,0,1-0.4,1-1s-0.4-1-1-1H3H1z"/> <path d="M22.2,21.6c-0.2,0.2-0.4,0.4-0.6,0.6l-0.2,0.2l-0.2,0.1c-0.5,0.4-1,0.6-1.6,0.9c0.3,0.4,0.4,1,0.4,1.5c0,1.7-1.3,3-3,3H1 c-0.6,0-1,0.4-1,1s0.4,1,1,1h16c1.1,0,2.2-0.4,3-1c0,0,0.1,0,0.1-0.1l0.1-0.1c0.2-0.2,0.4-0.3,0.5-0.5l9.8-9.7 c0.9-0.9,1.5-2.2,1.5-3.5c0-0.9-0.3-1.7-0.7-2.4L22.2,21.6z"/> </g> </g>
</svg>